<svg width="422" height="50" viewBox="0 0 422 50" fill="none" xmlns="http://www.w3.org/2000/svg">
<path d="M21.9044 20V5.0387H29.2141C31.095 5.0387 32.5056 5.39492 33.446 6.10736C34.4007 6.81981 34.878 7.76023 34.878 8.92864C34.878 9.71232 34.6857 10.3963 34.301 10.9805C33.9162 11.5504 33.389 11.9921 32.7193 12.3056C32.0496 12.6191 31.2802 12.7758 30.411 12.7758L30.8171 11.8995C31.7575 11.8995 32.5911 12.0563 33.3178 12.3697C34.0445 12.669 34.6073 13.1178 35.0063 13.7163C35.4195 14.3147 35.6261 15.0485 35.6261 15.9177C35.6261 17.2001 35.1203 18.2046 34.1086 18.9313C33.0969 19.6438 31.6079 20 29.6416 20H21.9044ZM25.3455 17.3925H29.3851C30.2828 17.3925 30.9596 17.25 31.4156 16.965C31.8858 16.6658 32.1209 16.1956 32.1209 15.5544C32.1209 14.9274 31.8858 14.4643 31.4156 14.1651C30.9596 13.8516 30.2828 13.6949 29.3851 13.6949H25.0891V11.1728H28.7866C29.6273 11.1728 30.2685 11.0303 30.7102 10.7454C31.1662 10.4461 31.3942 9.9973 31.3942 9.39885C31.3942 8.81465 31.1662 8.38006 30.7102 8.09508C30.2685 7.79585 29.6273 7.64624 28.7866 7.64624H25.3455V17.3925ZM36.2812 20L42.9496 5.0387H46.3693L53.0592 20H49.4257L43.9542 6.79131H45.3221L39.8291 20H36.2812ZM39.6154 16.794L40.5344 14.1651H48.2288L49.1692 16.794H39.6154ZM54.6114 20V5.0387H61.4081C63.0325 5.0387 64.4645 5.35217 65.7042 5.97912C66.9438 6.59183 67.9127 7.45388 68.6109 8.56529C69.3091 9.6767 69.6582 10.9947 69.6582 12.5193C69.6582 14.0297 69.3091 15.3477 68.6109 16.4734C67.9127 17.5848 66.9438 18.454 65.7042 19.0809C64.4645 19.6936 63.0325 20 61.4081 20H54.6114ZM58.0739 17.1574H61.2371C62.2346 17.1574 63.0966 16.9721 63.8233 16.6016C64.5642 16.2169 65.1342 15.6755 65.5332 14.9773C65.9464 14.2791 66.153 13.4598 66.153 12.5193C66.153 11.5647 65.9464 10.7454 65.5332 10.0614C65.1342 9.36323 64.5642 8.8289 63.8233 8.45843C63.0966 8.07371 62.2346 7.88135 61.2371 7.88135H58.0739V17.1574ZM70.0944 20L76.7628 5.0387H80.1826L86.8724 20H83.2389L77.7674 6.79131H79.1353L73.6423 20H70.0944ZM73.4286 16.794L74.3476 14.1651H82.042L82.9825 16.794H73.4286ZM88.4246 20V5.0387H91.2886L100.116 15.8108H98.7265V5.0387H102.146V20H99.3036L90.4551 9.22786H91.8444V20H88.4246ZM114.924 11.066H122.126V13.759H114.924V11.066ZM115.18 17.2215H123.323V20H111.739V5.0387H123.046V7.81723H115.18V17.2215ZM129.177 16.5803L128.985 12.5835L136.145 5.0387H139.992L133.538 11.985L131.614 14.0369L129.177 16.5803ZM126.078 20V5.0387H129.519V20H126.078ZM136.316 20L130.994 13.4811L133.26 11.0232L140.356 20H136.316ZM146.502 20.2565C145.305 20.2565 144.158 20.0997 143.061 19.7863C141.964 19.4585 141.081 19.0382 140.411 18.5252L141.586 15.9177C142.228 16.3737 142.983 16.7513 143.852 17.0505C144.735 17.3355 145.626 17.478 146.524 17.478C147.208 17.478 147.756 17.4138 148.169 17.2856C148.597 17.1431 148.91 16.9507 149.11 16.7085C149.309 16.4663 149.409 16.1884 149.409 15.875C149.409 15.476 149.252 15.1625 148.939 14.9345C148.625 14.6923 148.212 14.4999 147.699 14.3575C147.186 14.2007 146.616 14.0582 145.989 13.93C145.377 13.7875 144.757 13.6165 144.13 13.417C143.517 13.2175 142.954 12.9611 142.441 12.6476C141.928 12.3341 141.508 11.9209 141.18 11.4079C140.867 10.895 140.71 10.2395 140.71 9.4416C140.71 8.58667 140.938 7.8101 141.394 7.11191C141.864 6.39946 142.563 5.83664 143.489 5.42342C144.429 4.99595 145.605 4.78222 147.015 4.78222C147.956 4.78222 148.882 4.89621 149.794 5.12419C150.706 5.33793 151.511 5.66565 152.209 6.10736L151.14 8.73628C150.442 8.33731 149.744 8.04521 149.046 7.85997C148.348 7.66049 147.664 7.56075 146.994 7.56075C146.324 7.56075 145.776 7.63912 145.348 7.79585C144.921 7.95259 144.614 8.1592 144.429 8.41568C144.244 8.65791 144.151 8.94289 144.151 9.27061C144.151 9.65533 144.308 9.9688 144.622 10.211C144.935 10.439 145.348 10.6243 145.861 10.7667C146.374 10.9092 146.937 11.0517 147.55 11.1942C148.177 11.3367 148.796 11.5006 149.409 11.6858C150.036 11.871 150.606 12.1204 151.119 12.4339C151.632 12.7473 152.045 13.1605 152.359 13.6735C152.686 14.1865 152.85 14.8348 152.85 15.6185C152.85 16.4592 152.615 17.2286 152.145 17.9268C151.675 18.625 150.969 19.1878 150.029 19.6153C149.103 20.0427 147.927 20.2565 146.502 20.2565ZM158.401 11.066H165.604V13.759H158.401V11.066ZM158.657 17.2215H166.8V20H155.216V5.0387H166.523V7.81723H158.657V17.2215ZM172.655 16.5803L172.462 12.5835L179.622 5.0387H183.469L177.015 11.985L175.091 14.0369L172.655 16.5803ZM169.555 20V5.0387H172.997V20H169.555ZM179.793 20L174.471 13.4811L176.737 11.0232L183.833 20H179.793ZM191.815 20.2565C189.692 20.2565 188.032 19.6652 186.835 18.4825C185.638 17.2998 185.04 15.6114 185.04 13.417V5.0387H188.502V13.2888C188.502 14.7137 188.794 15.7396 189.379 16.3665C189.963 16.9935 190.782 17.307 191.836 17.307C192.891 17.307 193.71 16.9935 194.294 16.3665C194.879 15.7396 195.171 14.7137 195.171 13.2888V5.0387H198.59V13.417C198.59 15.6114 197.992 17.2998 196.795 18.4825C195.598 19.6652 193.938 20.2565 191.815 20.2565ZM204.861 20V7.85997H200.073V5.0387H213.111V7.85997H208.323V20H204.861ZM214.974 20V5.0387H218.436V20H214.974ZM225.193 11.7713H232.374V14.5498H225.193V11.7713ZM225.449 20H221.987V5.0387H233.293V7.81723H225.449V20ZM241.69 20V5.0387H244.554L250.924 15.5971H249.406L255.668 5.0387H258.511L258.554 20H255.305L255.284 10.0187H255.882L250.881 18.4184H249.321L244.212 10.0187H244.939V20H241.69ZM260.137 20L266.806 5.0387H270.225L276.915 20H273.282L267.81 6.79131H269.178L263.685 20H260.137ZM263.471 16.794L264.39 14.1651H272.085L273.025 16.794H263.471ZM288.727 5.0387H292.189V20H288.727V5.0387ZM281.93 20H278.467V5.0387H281.93V20ZM288.983 13.8659H281.673V10.9377H288.983V13.8659ZM293.762 20L300.431 5.0387H303.851L310.54 20H306.907L301.435 6.79131H302.803L297.31 20H293.762ZM297.097 16.794L298.016 14.1651H305.71L306.651 16.794H297.097ZM317.009 20.2565C315.812 20.2565 314.665 20.0997 313.567 19.7863C312.47 19.4585 311.587 19.0382 310.917 18.5252L312.093 15.9177C312.734 16.3737 313.489 16.7513 314.358 17.0505C315.242 17.3355 316.132 17.478 317.03 17.478C317.714 17.478 318.262 17.4138 318.676 17.2856C319.103 17.1431 319.417 16.9507 319.616 16.7085C319.816 16.4663 319.915 16.1884 319.915 15.875C319.915 15.476 319.759 15.1625 319.445 14.9345C319.132 14.6923 318.718 14.4999 318.205 14.3575C317.693 14.2007 317.123 14.0582 316.496 13.93C315.883 13.7875 315.263 13.6165 314.636 13.417C314.023 13.2175 313.461 12.9611 312.948 12.6476C312.435 12.3341 312.014 11.9209 311.687 11.4079C311.373 10.895 311.216 10.2395 311.216 9.4416C311.216 8.58667 311.444 7.8101 311.9 7.11191C312.371 6.39946 313.069 5.83664 313.995 5.42342C314.935 4.99595 316.111 4.78222 317.522 4.78222C318.462 4.78222 319.388 4.89621 320.3 5.12419C321.212 5.33793 322.017 5.66565 322.715 6.10736L321.647 8.73628C320.948 8.33731 320.25 8.04521 319.552 7.85997C318.854 7.66049 318.17 7.56075 317.5 7.56075C316.83 7.56075 316.282 7.63912 315.854 7.79585C315.427 7.95259 315.121 8.1592 314.935 8.41568C314.75 8.65791 314.658 8.94289 314.658 9.27061C314.658 9.65533 314.814 9.9688 315.128 10.211C315.441 10.439 315.854 10.6243 316.367 10.7667C316.88 10.9092 317.443 11.0517 318.056 11.1942C318.683 11.3367 319.303 11.5006 319.915 11.6858C320.542 11.871 321.112 12.1204 321.625 12.4339C322.138 12.7473 322.551 13.1605 322.865 13.6735C323.193 14.1865 323.356 14.8348 323.356 15.6185C323.356 16.4592 323.121 17.2286 322.651 17.9268C322.181 18.625 321.476 19.1878 320.535 19.6153C319.609 20.0427 318.433 20.2565 317.009 20.2565ZM325.722 20V5.0387H329.185V20H325.722ZM337.651 20.2565C336.454 20.2565 335.307 20.0997 334.21 19.7863C333.113 19.4585 332.23 19.0382 331.56 18.5252L332.735 15.9177C333.377 16.3737 334.132 16.7513 335.001 17.0505C335.884 17.3355 336.775 17.478 337.673 17.478C338.357 17.478 338.905 17.4138 339.318 17.2856C339.746 17.1431 340.059 16.9507 340.259 16.7085C340.458 16.4663 340.558 16.1884 340.558 15.875C340.558 15.476 340.401 15.1625 340.088 14.9345C339.774 14.6923 339.361 14.4999 338.848 14.3575C338.335 14.2007 337.765 14.0582 337.138 13.93C336.526 13.7875 335.906 13.6165 335.279 13.417C334.666 13.2175 334.103 12.9611 333.59 12.6476C333.077 12.3341 332.657 11.9209 332.329 11.4079C332.016 10.895 331.859 10.2395 331.859 9.4416C331.859 8.58667 332.087 7.8101 332.543 7.11191C333.013 6.39946 333.712 5.83664 334.638 5.42342C335.578 4.99595 336.754 4.78222 338.164 4.78222C339.105 4.78222 340.031 4.89621 340.943 5.12419C341.855 5.33793 342.66 5.66565 343.358 6.10736L342.289 8.73628C341.591 8.33731 340.893 8.04521 340.195 7.85997C339.497 7.66049 338.813 7.56075 338.143 7.56075C337.473 7.56075 336.925 7.63912 336.497 7.79585C336.07 7.95259 335.763 8.1592 335.578 8.41568C335.393 8.65791 335.3 8.94289 335.3 9.27061C335.3 9.65533 335.457 9.9688 335.77 10.211C336.084 10.439 336.497 10.6243 337.01 10.7667C337.523 10.9092 338.086 11.0517 338.699 11.1942C339.326 11.3367 339.945 11.5006 340.558 11.6858C341.185 11.871 341.755 12.1204 342.268 12.4339C342.781 12.7473 343.194 13.1605 343.508 13.6735C343.835 14.1865 343.999 14.8348 343.999 15.6185C343.999 16.4592 343.764 17.2286 343.294 17.9268C342.824 18.625 342.118 19.1878 341.178 19.6153C340.252 20.0427 339.076 20.2565 337.651 20.2565ZM349.956 20L345.061 5.0387H348.652L352.905 18.2901H351.11L355.556 5.0387H358.762L363.036 18.2901H361.305L365.665 5.0387H368.978L364.084 20H360.365L356.582 8.37293H357.565L353.675 20H349.956ZM368.444 20L375.112 5.0387H378.532L385.222 20H381.588L376.117 6.79131H377.485L371.992 20H368.444ZM371.778 16.794L372.697 14.1651H380.391L381.332 16.794H371.778ZM8.95242 45.2565C6.82934 45.2565 5.16934 44.6652 3.97244 43.4825C2.77554 42.2998 2.17708 40.6114 2.17708 38.417V30.0387H5.63956V38.2888C5.63956 39.7137 5.93166 40.7396 6.51586 41.3665C7.10006 41.9935 7.91937 42.307 8.97379 42.307C10.0282 42.307 10.8475 41.9935 11.4317 41.3665C12.0159 40.7396 12.308 39.7137 12.308 38.2888V30.0387H15.7277V38.417C15.7277 40.6114 15.1293 42.2998 13.9324 43.4825C12.7355 44.6652 11.0755 45.2565 8.95242 45.2565ZM19.1493 45V30.0387H22.0133L30.8405 40.8108H29.4512V30.0387H32.871V45H30.0283L21.1798 34.2279H22.569V45H19.1493ZM36.4107 45V30.0387H39.8732V45H36.4107ZM47.8288 45L41.374 30.0387H45.1143L50.7569 43.2901H48.5554L54.2835 30.0387H57.7246L51.2485 45H47.8288ZM62.1584 36.066H69.3612V38.759H62.1584V36.066ZM62.4149 42.2215H70.5581V45H58.9738V30.0387H70.2802V32.8172H62.4149V42.2215ZM73.3131 45V30.0387H79.7892C81.1286 30.0387 82.2827 30.2596 83.2516 30.7013C84.2206 31.1287 84.9686 31.7486 85.4958 32.5607C86.023 33.3729 86.2866 34.3419 86.2866 35.4675C86.2866 36.5789 86.023 37.5407 85.4958 38.3529C84.9686 39.1508 84.2206 39.7635 83.2516 40.191C82.2827 40.6185 81.1286 40.8322 79.7892 40.8322H75.2367L76.7755 39.3147V45H73.3131ZM82.8242 45L79.0838 39.5712H82.7814L86.5645 45H82.8242ZM76.7755 39.6994L75.2367 38.0751H79.5968C80.6655 38.0751 81.4634 37.8471 81.9906 37.3911C82.5178 36.9209 82.7814 36.2797 82.7814 35.4675C82.7814 34.6411 82.5178 33.9999 81.9906 33.5439C81.4634 33.088 80.6655 32.86 79.5968 32.86H75.2367L76.7755 31.2142V39.6994ZM93.9458 45.2565C92.7489 45.2565 91.6019 45.0997 90.5047 44.7863C89.4075 44.4585 88.5241 44.0382 87.8544 43.5252L89.0299 40.9177C89.6711 41.3737 90.4263 41.7513 91.2955 42.0505C92.1789 42.3355 93.0695 42.478 93.9672 42.478C94.6511 42.478 95.1997 42.4138 95.6129 42.2856C96.0404 42.1431 96.3538 41.9507 96.5533 41.7085C96.7528 41.4663 96.8526 41.1884 96.8526 40.875C96.8526 40.476 96.6958 40.1625 96.3823 39.9345C96.0689 39.6923 95.6557 39.4999 95.1427 39.3575C94.6297 39.2007 94.0598 39.0582 93.4328 38.93C92.8201 38.7875 92.2003 38.6165 91.5734 38.417C90.9607 38.2175 90.3978 37.9611 89.8849 37.6476C89.3719 37.3341 88.9516 36.9209 88.6238 36.4079C88.3104 35.895 88.1536 35.2395 88.1536 34.4416C88.1536 33.5867 88.3816 32.8101 88.8376 32.1119C89.3078 31.3995 90.006 30.8366 90.9322 30.4234C91.8726 29.996 93.0481 29.7822 94.4587 29.7822C95.3992 29.7822 96.3253 29.8962 97.2373 30.1242C98.1492 30.3379 98.9543 30.6656 99.6525 31.1074L98.5838 33.7363C97.8856 33.3373 97.1874 33.0452 96.4892 32.86C95.791 32.6605 95.1071 32.5607 94.4374 32.5607C93.7677 32.5607 93.2191 32.6391 92.7916 32.7959C92.3642 32.9526 92.0578 33.1592 91.8726 33.4157C91.6873 33.6579 91.5947 33.9429 91.5947 34.2706C91.5947 34.6553 91.7515 34.9688 92.0649 35.211C92.3784 35.439 92.7916 35.6243 93.3046 35.7667C93.8175 35.9092 94.3804 36.0517 94.9931 36.1942C95.62 36.3367 96.2399 36.5006 96.8526 36.6858C97.4795 36.871 98.0495 37.1204 98.5624 37.4339C99.0754 37.7473 99.4886 38.1605 99.8021 38.6735C100.13 39.1865 100.294 39.8348 100.294 40.6185C100.294 41.4592 100.059 42.2286 99.5883 42.9268C99.1181 43.625 98.4128 44.1878 97.4724 44.6153C96.5462 45.0427 95.3707 45.2565 93.9458 45.2565ZM102.66 45V30.0387H106.122V45H102.66ZM112.772 45V32.86H107.984V30.0387H121.022V32.86H116.234V45H112.772ZM120.167 45L126.836 30.0387H130.255L136.945 45H133.312L127.84 31.7913H129.208L123.715 45H120.167ZM123.501 41.794L124.42 39.1651H132.115L133.055 41.794H123.501ZM143.413 45.2565C142.216 45.2565 141.069 45.0997 139.972 44.7863C138.875 44.4585 137.992 44.0382 137.322 43.5252L138.497 40.9177C139.139 41.3737 139.894 41.7513 140.763 42.0505C141.646 42.3355 142.537 42.478 143.435 42.478C144.119 42.478 144.667 42.4138 145.08 42.2856C145.508 42.1431 145.821 41.9507 146.021 41.7085C146.22 41.4663 146.32 41.1884 146.32 40.875C146.32 40.476 146.163 40.1625 145.85 39.9345C145.536 39.6923 145.123 39.4999 144.61 39.3575C144.097 39.2007 143.527 39.0582 142.9 38.93C142.288 38.7875 141.668 38.6165 141.041 38.417C140.428 38.2175 139.865 37.9611 139.352 37.6476C138.839 37.3341 138.419 36.9209 138.091 36.4079C137.778 35.895 137.621 35.2395 137.621 34.4416C137.621 33.5867 137.849 32.8101 138.305 32.1119C138.775 31.3995 139.473 30.8366 140.4 30.4234C141.34 29.996 142.516 29.7822 143.926 29.7822C144.867 29.7822 145.793 29.8962 146.705 30.1242C147.617 30.3379 148.422 30.6656 149.12 31.1074L148.051 33.7363C147.353 33.3373 146.655 33.0452 145.957 32.86C145.258 32.6605 144.575 32.5607 143.905 32.5607C143.235 32.5607 142.687 32.6391 142.259 32.7959C141.832 32.9526 141.525 33.1592 141.34 33.4157C141.155 33.6579 141.062 33.9429 141.062 34.2706C141.062 34.6553 141.219 34.9688 141.532 35.211C141.846 35.439 142.259 35.6243 142.772 35.7667C143.285 35.9092 143.848 36.0517 144.461 36.1942C145.087 36.3367 145.707 36.5006 146.32 36.6858C146.947 36.871 147.517 37.1204 148.03 37.4339C148.543 37.7473 148.956 38.1605 149.27 38.6735C149.597 39.1865 149.761 39.8348 149.761 40.6185C149.761 41.4592 149.526 42.2286 149.056 42.9268C148.586 43.625 147.88 44.1878 146.94 44.6153C146.014 45.0427 144.838 45.2565 143.413 45.2565ZM156.214 45L162.882 30.0387H166.302L172.992 45H169.358L163.887 31.7913H165.255L159.762 45H156.214ZM159.548 41.794L160.467 39.1651H168.161L169.102 41.794H159.548ZM174.544 45V30.0387H181.341C182.965 30.0387 184.397 30.3522 185.637 30.9791C186.876 31.5918 187.845 32.4539 188.543 33.5653C189.242 34.6767 189.591 35.9947 189.591 37.5193C189.591 39.0297 189.242 40.3477 188.543 41.4734C187.845 42.5848 186.876 43.454 185.637 44.0809C184.397 44.6936 182.965 45 181.341 45H174.544ZM178.006 42.1574H181.17C182.167 42.1574 183.029 41.9721 183.756 41.6016C184.497 41.2169 185.067 40.6755 185.466 39.9773C185.879 39.2791 186.086 38.4598 186.086 37.5193C186.086 36.5647 185.879 35.7454 185.466 35.0614C185.067 34.3632 184.497 33.8289 183.756 33.4584C183.029 33.0737 182.167 32.8813 181.17 32.8813H178.006V42.1574ZM196.189 45L189.735 30.0387H193.475L199.118 43.2901H196.916L202.644 30.0387H206.085L199.609 45H196.189ZM210.519 36.066H217.722V38.759H210.519V36.066ZM210.776 42.2215H218.919V45H207.334V30.0387H218.641V32.8172H210.776V42.2215ZM221.674 45V30.0387H224.538L233.365 40.8108H231.976V30.0387H235.395V45H232.553L223.704 34.2279H225.093V45H221.674ZM242.034 45V32.86H237.247V30.0387H250.284V32.86H245.497V45H242.034ZM258.2 45V30.0387H261.663V45H258.2ZM265.213 45V30.0387H268.077L276.905 40.8108H275.515V30.0387H278.935V45H276.092L267.244 34.2279H268.633V45H265.213ZM282.475 45V30.0387H289.272C290.896 30.0387 292.328 30.3522 293.568 30.9791C294.807 31.5918 295.776 32.4539 296.474 33.5653C297.173 34.6767 297.522 35.9947 297.522 37.5193C297.522 39.0297 297.173 40.3477 296.474 41.4734C295.776 42.5848 294.807 43.454 293.568 44.0809C292.328 44.6936 290.896 45 289.272 45H282.475ZM285.937 42.1574H289.101C290.098 42.1574 290.96 41.9721 291.687 41.6016C292.428 41.2169 292.998 40.6755 293.397 39.9773C293.81 39.2791 294.016 38.4598 294.016 37.5193C294.016 36.5647 293.81 35.7454 293.397 35.0614C292.998 34.3632 292.428 33.8289 291.687 33.4584C290.96 33.0737 290.098 32.8813 289.101 32.8813H285.937V42.1574ZM307.4 45.2565C306.217 45.2565 305.12 45.0641 304.108 44.6794C303.111 44.2947 302.242 43.7532 301.501 43.055C300.774 42.3568 300.204 41.5375 299.791 40.5971C299.392 39.6567 299.192 38.6308 299.192 37.5193C299.192 36.4079 299.392 35.382 299.791 34.4416C300.204 33.5012 300.781 32.6819 301.522 31.9837C302.263 31.2855 303.132 30.744 304.13 30.3593C305.127 29.9746 306.21 29.7822 307.378 29.7822C308.561 29.7822 309.644 29.9746 310.627 30.3593C311.625 30.744 312.487 31.2855 313.213 31.9837C313.954 32.6819 314.531 33.5012 314.945 34.4416C315.358 35.3678 315.564 36.3937 315.564 37.5193C315.564 38.6308 315.358 39.6638 314.945 40.6185C314.531 41.5589 313.954 42.3782 313.213 43.0764C312.487 43.7603 311.625 44.2947 310.627 44.6794C309.644 45.0641 308.568 45.2565 307.4 45.2565ZM307.378 42.307C308.048 42.307 308.661 42.193 309.217 41.965C309.786 41.737 310.285 41.4093 310.713 40.9818C311.14 40.5544 311.468 40.0485 311.696 39.4643C311.938 38.8801 312.059 38.2318 312.059 37.5193C312.059 36.8069 311.938 36.1586 311.696 35.5744C311.468 34.9902 311.14 34.4843 310.713 34.0569C310.299 33.6294 309.808 33.3017 309.238 33.0737C308.668 32.8457 308.048 32.7317 307.378 32.7317C306.709 32.7317 306.089 32.8457 305.519 33.0737C304.963 33.3017 304.472 33.6294 304.044 34.0569C303.617 34.4843 303.282 34.9902 303.04 35.5744C302.812 36.1586 302.698 36.8069 302.698 37.5193C302.698 38.2175 302.812 38.8659 303.04 39.4643C303.282 40.0485 303.61 40.5544 304.023 40.9818C304.45 41.4093 304.949 41.737 305.519 41.965C306.089 42.193 306.709 42.307 307.378 42.307ZM318.167 45V30.0387H321.031L329.858 40.8108H328.469V30.0387H331.888V45H329.046L320.197 34.2279H321.586V45H318.167ZM338.613 36.066H345.815V38.759H338.613V36.066ZM338.869 42.2215H347.012V45H335.428V30.0387H346.734V32.8172H338.869V42.2215ZM354.683 45.2565C353.486 45.2565 352.339 45.0997 351.242 44.7863C350.145 44.4585 349.261 44.0382 348.592 43.5252L349.767 40.9177C350.409 41.3737 351.164 41.7513 352.033 42.0505C352.916 42.3355 353.807 42.478 354.705 42.478C355.389 42.478 355.937 42.4138 356.35 42.2856C356.778 42.1431 357.091 41.9507 357.291 41.7085C357.49 41.4663 357.59 41.1884 357.59 40.875C357.59 40.476 357.433 40.1625 357.12 39.9345C356.806 39.6923 356.393 39.4999 355.88 39.3575C355.367 39.2007 354.797 39.0582 354.17 38.93C353.558 38.7875 352.938 38.6165 352.311 38.417C351.698 38.2175 351.135 37.9611 350.622 37.6476C350.109 37.3341 349.689 36.9209 349.361 36.4079C349.048 35.895 348.891 35.2395 348.891 34.4416C348.891 33.5867 349.119 32.8101 349.575 32.1119C350.045 31.3995 350.743 30.8366 351.67 30.4234C352.61 29.996 353.786 29.7822 355.196 29.7822C356.137 29.7822 357.063 29.8962 357.975 30.1242C358.887 30.3379 359.692 30.6656 360.39 31.1074L359.321 33.7363C358.623 33.3373 357.925 33.0452 357.227 32.86C356.528 32.6605 355.844 32.5607 355.175 32.5607C354.505 32.5607 353.956 32.6391 353.529 32.7959C353.102 32.9526 352.795 33.1592 352.61 33.4157C352.425 33.6579 352.332 33.9429 352.332 34.2706C352.332 34.6553 352.489 34.9688 352.802 35.211C353.116 35.439 353.529 35.6243 354.042 35.7667C354.555 35.9092 355.118 36.0517 355.73 36.1942C356.357 36.3367 356.977 36.5006 357.59 36.6858C358.217 36.871 358.787 37.1204 359.3 37.4339C359.813 37.7473 360.226 38.1605 360.539 38.6735C360.867 39.1865 361.031 39.8348 361.031 40.6185C361.031 41.4592 360.796 42.2286 360.326 42.9268C359.856 43.625 359.15 44.1878 358.21 44.6153C357.284 45.0427 356.108 45.2565 354.683 45.2565ZM363.397 45V30.0387H366.859V45H363.397ZM368.444 45L375.112 30.0387H378.532L385.222 45H381.588L376.117 31.7913H377.485L371.992 45H368.444ZM371.778 41.794L372.697 39.1651H380.391L381.332 41.794H371.778Z" fill="white"/>
<path d="M394.985 20V17.3497L400.585 12.1133C400.984 11.7428 401.276 11.4151 401.461 11.1301C401.661 10.8451 401.789 10.5886 401.846 10.3606C401.917 10.1184 401.953 9.89756 401.953 9.69808C401.953 9.21361 401.789 8.83602 401.461 8.56529C401.148 8.29456 400.671 8.1592 400.029 8.1592C399.488 8.1592 398.982 8.28031 398.512 8.52255C398.042 8.76478 397.657 9.12812 397.358 9.61258L394.216 7.85997C394.772 6.91955 395.577 6.16436 396.631 5.59441C397.685 5.02445 398.947 4.73947 400.414 4.73947C401.568 4.73947 402.58 4.92471 403.449 5.29518C404.318 5.66565 404.995 6.19286 405.48 6.8768C405.978 7.56075 406.228 8.36581 406.228 9.29198C406.228 9.77644 406.164 10.2609 406.035 10.7454C405.907 11.2156 405.658 11.7214 405.287 12.2629C404.931 12.7901 404.397 13.3814 403.684 14.0369L399.239 18.1405L398.533 16.6444H406.634V20H394.985ZM407.612 17.136V14.3788L414.323 5.0387H418.704L412.185 14.3788L410.176 13.7804H421.868V17.136H407.612ZM415.52 20V17.136L415.648 13.7804V11.237H419.645V20H415.52ZM396.864 45V42.3497L402.464 37.1133C402.863 36.7428 403.155 36.4151 403.34 36.1301C403.539 35.8451 403.668 35.5886 403.725 35.3606C403.796 35.1184 403.832 34.8976 403.832 34.6981C403.832 34.2136 403.668 33.836 403.34 33.5653C403.026 33.2946 402.549 33.1592 401.908 33.1592C401.366 33.1592 400.861 33.2803 400.39 33.5225C399.92 33.7648 399.536 34.1281 399.236 34.6126L396.094 32.86C396.65 31.9195 397.455 31.1644 398.51 30.5944C399.564 30.0245 400.825 29.7395 402.293 29.7395C403.447 29.7395 404.458 29.9247 405.328 30.2952C406.197 30.6656 406.874 31.1929 407.358 31.8768C407.857 32.5607 408.106 33.3658 408.106 34.292C408.106 34.7764 408.042 35.2609 407.914 35.7454C407.786 36.2156 407.536 36.7214 407.166 37.2629C406.81 37.7901 406.275 38.3814 405.563 39.0369L401.117 43.1405L400.412 41.6444H408.512V45H396.864ZM414.981 45.2992C413.955 45.2992 412.922 45.171 411.881 44.9145C410.841 44.658 409.944 44.2947 409.188 43.8245L410.706 40.6398C411.319 41.0388 411.981 41.3452 412.694 41.5589C413.42 41.7726 414.14 41.8795 414.852 41.8795C415.565 41.8795 416.142 41.7441 416.584 41.4734C417.025 41.1884 417.246 40.7966 417.246 40.2979C417.246 39.9987 417.161 39.735 416.99 39.5071C416.819 39.2648 416.527 39.0867 416.113 38.9727C415.7 38.8445 415.109 38.7804 414.339 38.7804H410.278L411.026 30.0387H420.559V33.3088H412.523L414.681 31.4493L414.19 37.3484L412.031 35.4889H415.344C416.826 35.4889 418.016 35.7026 418.913 36.1301C419.811 36.5433 420.466 37.1061 420.88 37.8186C421.293 38.5168 421.499 39.3076 421.499 40.191C421.499 41.0744 421.264 41.908 420.794 42.6917C420.338 43.4611 419.633 44.0881 418.678 44.5725C417.723 45.057 416.491 45.2992 414.981 45.2992Z" fill="white"/>
</svg>
