<svg width="46" height="49" viewBox="0 0 46 49" fill="none" xmlns="http://www.w3.org/2000/svg">
<g clip-path="url(#clip0_4_18)">
<path d="M30.8501 43.1811C30.8501 43.1811 32.4192 39.5241 16.2084 32.734C0 25.9417 1.04683 13.4052 1.04683 13.4052C7.84541 22.8087 15.6885 23.3305 26.6674 30.1228C37.6487 36.9152 30.8501 43.1835 30.8501 43.1835V43.1811ZM17.5886 38.6412C11.275 37.7398 3.15682 26.927 3.15682 26.927C3.15682 26.927 12.4058 45.8645 22.3402 48.9998L28.8637 44.4995C28.8637 44.4995 28.3974 40.1856 17.5886 38.6412ZM2.70684 3.49849H9.47045L5.86366 0.344561H0V8.00343L2.70684 9.80634V3.49849ZM6.8592 6.22615H9.97638C10.7784 6.22615 11.3753 6.35892 11.7693 6.62679C12.1633 6.89467 12.3615 7.2464 12.3615 7.67965C12.3615 7.96616 12.2799 8.2154 12.1143 8.4297C11.9675 8.61838 11.76 8.76746 11.5105 8.88625C11.5548 8.90023 11.6061 8.90489 11.648 8.92119C11.9675 9.03999 12.2146 9.21236 12.3918 9.43831C12.569 9.66425 12.6576 9.93678 12.6576 10.2606C12.6576 10.7427 12.4454 11.1178 12.0164 11.3856C11.5898 11.6535 10.9673 11.7863 10.1489 11.7863H6.85687V6.22382L6.8592 6.22615ZM8.56584 8.43436H9.75023C10.0393 8.43436 10.2585 8.3901 10.403 8.29926C10.5476 8.20841 10.6199 8.07331 10.6199 7.89395C10.6199 7.71459 10.5476 7.57949 10.403 7.49331C10.2585 7.40479 10.0393 7.36286 9.75023 7.36286H8.56584V8.43669V8.43436ZM8.56584 10.6519H10.0114C10.3075 10.6519 10.5313 10.6053 10.6851 10.5121C10.839 10.419 10.916 10.2769 10.916 10.0859C10.916 9.89486 10.839 9.75277 10.6851 9.65959C10.5313 9.56642 10.3075 9.51983 10.0114 9.51983H8.56584V10.6472V10.6519ZM18.3371 7.44206V6.22615H13.5552V11.7886H18.449V10.5727H15.2618V9.55477H17.971V8.37846H15.2618V7.43973H18.3347L18.3371 7.44206ZM25.061 6.22615L22.9744 9.44063L20.8294 6.22615H19.4095V11.7886H21.0019V8.91886L22.5617 11.2389H23.3287L24.8978 8.83501L24.9141 11.7863H26.4995L26.4809 6.22382H25.061V6.22615ZM12.2146 15.5342C12.2146 16.0117 12.112 16.3518 11.9092 16.5591C11.7063 16.7664 11.4242 16.8689 11.0652 16.8689C10.7061 16.8689 10.4217 16.7664 10.2165 16.5591C10.0114 16.3518 9.90644 16.0117 9.90644 15.5342V12.4991H8.18115V15.5831C8.18115 16.41 8.43294 17.0483 8.93887 17.4978C9.4448 17.9474 10.1466 18.1733 11.0465 18.1733C11.9465 18.1733 12.6483 17.9474 13.1542 17.4978C13.6601 17.0483 13.9119 16.41 13.9119 15.5831V12.4991H12.2146V15.5342ZM19.1904 15.462L16.4998 12.4967H15.08V18.0592H16.7703V15.0939L19.4608 18.0592H20.8807V12.4967H19.1904V15.462ZM24.0585 12.4967H25.7558L28.4557 18.0592H26.6627L26.1871 16.9784H23.6015L23.1259 18.0592H21.368L24.0585 12.4967ZM24.1121 15.8184H25.6765L24.8955 14.0411L24.1144 15.8184H24.1121ZM30.6682 12.4967H28.9429V18.0592H30.6682V12.4967ZM33.431 27.3067C33.431 27.3067 37.5251 31.9374 36.1565 35.9602L43.2185 26.3749C43.2185 26.3749 38.1966 29.3844 33.431 27.3067ZM42.7499 11.6162C42.7499 11.6162 45.5524 12.9579 46.0023 6.65008L45.5547 1.08296L32.0648 1.07132L28.6795 0.0277706C28.6165 0.00913587 28.5512 -0.00251083 28.486 -0.000181494L12.5736 0.06504L17.127 3.50781L27.959 3.49849L32.0181 4.84951L42.4002 4.88677L42.251 7.96849C42.251 7.96849 32.172 5.91168 32.7875 15.2989C33.3727 24.225 44.2467 21.0128 44.4472 21.0407C44.6477 21.0687 44.4636 16.7315 44.4636 16.7315C44.4636 16.7315 41.1062 20.1533 38.2921 17.6376C36.9003 16.3937 36.441 14.3346 37.3526 12.704C38.0473 11.4602 39.5441 10.4958 42.7499 11.6186V11.6162Z" fill="url(#paint0_linear_4_18)"/>
</g>
<defs>
<linearGradient id="paint0_linear_4_18" x1="12.914" y1="-5.66048" x2="39.5518" y2="40.5165" gradientUnits="userSpaceOnUse">
<stop stop-color="#DEDD99"/>
<stop offset="0.17" stop-color="#C9C47B"/>
<stop offset="0.4" stop-color="#B2A859"/>
<stop offset="0.63" stop-color="#A29441"/>
<stop offset="0.83" stop-color="#988833"/>
<stop offset="1" stop-color="#95842E"/>
</linearGradient>
<clipPath id="clip0_4_18">
<rect width="46" height="49" fill="white"/>
</clipPath>
</defs>
</svg>
