<svg width="37" height="37" viewBox="0 0 37 37" fill="none" xmlns="http://www.w3.org/2000/svg">
<g clip-path="url(#clip0_1_85)">
<path fill-rule="evenodd" clip-rule="evenodd" d="M18.5 12.6397C15.2633 12.6397 12.6406 15.2633 12.6406 18.5C12.6406 21.7367 15.2642 24.3594 18.5 24.3594C21.7358 24.3594 24.3594 21.7358 24.3594 18.5C24.3594 15.2642 21.7358 12.6397 18.5 12.6397ZM9.24957 2.47793C8.92366 2.66675 9.97036 5.09123 11.5887 7.89421C13.207 10.6972 14.7831 12.8164 15.1099 12.6276C15.4366 12.4388 14.3899 10.0143 12.7716 7.21135C11.1533 4.40837 9.5772 2.28911 9.25043 2.47793H9.24957ZM2.47879 9.24957C2.28998 9.57634 4.40924 11.1524 7.21221 12.7707C10.0152 14.3891 12.4397 15.4358 12.6285 15.109C12.8173 14.7831 10.698 13.2062 7.89507 11.5878C5.09209 9.9695 2.66761 8.9228 2.47879 9.24871V9.24957ZM0 18.5C0 18.8768 2.62364 19.1829 5.8603 19.1829C9.09696 19.1829 11.7197 18.8768 11.7197 18.5C11.7197 18.1232 9.0961 17.8171 5.8603 17.8171C2.6245 17.8171 0 18.1232 0 18.5ZM2.47879 27.7504C2.66761 28.0763 5.09209 27.0296 7.89507 25.4113C10.698 23.793 12.8173 22.2169 12.6285 21.8901C12.4397 21.5634 10.0152 22.6101 7.21221 24.2284C4.40924 25.8467 2.28998 27.4228 2.47879 27.7496V27.7504ZM9.25043 34.5221C9.5772 34.7109 11.1533 32.5916 12.7716 29.7886C14.3899 26.9857 15.4366 24.5612 15.1099 24.3724C14.784 24.1835 13.207 26.3028 11.5887 29.1058C9.97036 31.9088 8.92366 34.3332 9.24957 34.5221H9.25043ZM18.5009 37.0009C18.8776 37.0009 19.1837 34.3772 19.1837 31.1406C19.1837 27.9039 18.8776 25.2811 18.5009 25.2811C18.1241 25.2811 17.818 27.9048 17.818 31.1406C17.818 34.3764 18.1241 37 18.5009 37.0009ZM27.7513 34.5221C28.0772 34.3332 27.0305 31.9088 25.4122 29.1058C23.7938 26.3028 22.2178 24.1835 21.891 24.3724C21.5642 24.5612 22.6109 26.9857 24.2301 29.7886C25.8484 32.5916 27.4245 34.7109 27.7513 34.5221ZM34.5229 27.7504C34.7117 27.4237 32.5925 25.8476 29.7895 24.2292C26.9865 22.6109 24.5621 21.5642 24.3732 21.891C24.1844 22.2169 26.3037 23.7938 29.1067 25.4122C31.9096 27.0305 34.3341 28.0772 34.5229 27.7513V27.7504ZM37.0017 18.5C37.0017 18.1232 34.3781 17.8171 31.1414 17.8171C27.9048 17.8171 25.282 18.1232 25.282 18.5C25.282 18.8768 27.9056 19.1829 31.1414 19.1829C34.3772 19.1829 37.0009 18.8768 37.0017 18.5ZM34.5229 9.24957C34.3341 8.92366 31.9096 9.97036 29.1067 11.5887C26.3037 13.207 24.1844 14.7831 24.3732 15.1099C24.5621 15.4366 26.9865 14.3891 29.7895 12.7716C32.5925 11.1533 34.7117 9.5772 34.5229 9.25043V9.24957ZM27.7513 2.47793C27.4254 2.28997 25.8484 4.40924 24.2301 7.21135C22.6118 10.0143 21.5651 12.4388 21.891 12.6276C22.2178 12.8164 23.7938 10.6972 25.4122 7.89421C27.0305 5.09123 28.0772 2.66675 27.7513 2.47793ZM18.5 0C18.1232 0 17.8171 2.62364 17.8171 5.85944C17.8171 9.09524 18.1232 11.7189 18.5 11.7189C18.8768 11.7189 19.1829 9.09524 19.1829 5.85944C19.1829 2.62364 18.8768 0 18.5 0Z" fill="url(#paint0_linear_1_85)"/>
</g>
<defs>
<linearGradient id="paint0_linear_1_85" x1="18.5009" y1="0" x2="18.5009" y2="37.0009" gradientUnits="userSpaceOnUse">
<stop stop-color="#9C8C38"/>
<stop offset="1" stop-color="#FCF8AB"/>
</linearGradient>
<clipPath id="clip0_1_85">
<rect width="37" height="37" fill="white"/>
</clipPath>
</defs>
</svg>
