<svg width="265" height="265" viewBox="0 0 265 265" fill="none" xmlns="http://www.w3.org/2000/svg">
<g filter="url(#filter0_d_42_23)">
<path fill-rule="evenodd" clip-rule="evenodd" d="M134.5 97.6456C113.593 97.6456 96.6512 114.593 96.6512 135.5C96.6512 156.407 113.599 173.349 134.5 173.349C155.402 173.349 172.349 156.401 172.349 135.5C172.349 114.598 155.402 97.6456 134.5 97.6456ZM74.7472 32.0061C72.642 33.2258 79.4031 48.8866 89.8567 66.9923C100.31 85.098 110.491 98.7873 112.602 97.5676C114.712 96.348 107.951 80.6872 97.4977 62.5814C87.0442 44.4757 76.8635 30.7864 74.7528 32.0061H74.7472ZM31.0117 75.7472C29.792 77.858 43.4813 88.0386 61.587 98.4921C79.6927 108.946 95.3535 115.707 96.5732 113.596C97.7929 111.491 84.1036 101.305 65.9979 90.8511C47.8922 80.3976 32.2313 73.6365 31.0117 75.7416V75.7472ZM15 135.5C15 137.934 31.9473 139.911 52.8544 139.911C73.7615 139.911 90.7032 137.934 90.7032 135.5C90.7032 133.066 73.7559 131.089 52.8544 131.089C31.9529 131.089 15 133.066 15 135.5ZM31.0117 195.253C32.2313 197.358 47.8922 190.597 65.9979 180.143C84.1036 169.69 97.7929 159.509 96.5732 157.398C95.3535 155.288 79.6927 162.049 61.587 172.502C43.4813 182.956 29.792 193.136 31.0117 195.247V195.253ZM74.7528 238.994C76.8635 240.214 87.0442 226.524 97.4977 208.419C107.951 190.313 114.712 174.652 112.602 173.432C110.496 172.213 100.31 185.902 89.8567 204.008C79.4031 222.113 72.642 237.774 74.7472 238.994H74.7528ZM134.506 255.006C136.939 255.006 138.916 238.058 138.916 217.151C138.916 196.244 136.939 179.302 134.506 179.302C132.072 179.302 130.095 196.25 130.095 217.151C130.095 238.053 132.072 255 134.506 255.006ZM194.258 238.994C196.364 237.774 189.602 222.113 179.149 204.008C168.695 185.902 158.515 172.213 156.404 173.432C154.293 174.652 161.054 190.313 171.513 208.419C181.967 226.524 192.148 240.214 194.258 238.994ZM237.999 195.253C239.219 193.142 225.53 182.961 207.424 172.508C189.318 162.054 173.658 155.293 172.438 157.404C171.218 159.509 184.908 169.695 203.013 180.149C221.119 190.602 236.78 197.364 237.999 195.258V195.253ZM254.011 135.5C254.011 133.066 237.064 131.089 216.157 131.089C195.25 131.089 178.308 133.066 178.308 135.5C178.308 137.934 195.255 139.911 216.157 139.911C237.058 139.911 254.006 137.934 254.011 135.5ZM237.999 75.7472C236.78 73.642 221.119 80.4031 203.013 90.8567C184.908 101.31 171.218 111.491 172.438 113.602C173.658 115.712 189.318 108.946 207.424 98.4977C225.53 88.0442 239.219 77.8635 237.999 75.7528V75.7472ZM194.258 32.0061C192.153 30.792 181.967 44.4813 171.513 62.5814C161.06 80.6872 154.299 96.348 156.404 97.5676C158.515 98.7873 168.695 85.098 179.149 66.9923C189.602 48.8866 196.364 33.2258 194.258 32.0061ZM134.5 16C132.066 16 130.089 32.9473 130.089 53.8488C130.089 74.7503 132.066 91.6976 134.5 91.6976C136.934 91.6976 138.911 74.7503 138.911 53.8488C138.911 32.9473 136.934 16 134.5 16Z" fill="url(#paint0_linear_42_23)"/>
</g>
<defs>
<filter id="filter0_d_42_23" x="0.5" y="0.5" width="264.011" height="264.006" filterUnits="userSpaceOnUse" color-interpolation-filters="sRGB">
<feFlood flood-opacity="0" result="BackgroundImageFix"/>
<feColorMatrix in="SourceAlpha" type="matrix" values="0 0 0 0 0 0 0 0 0 0 0 0 0 0 0 0 0 0 127 0" result="hardAlpha"/>
<feOffset dx="-2" dy="-3"/>
<feGaussianBlur stdDeviation="6.25"/>
<feComposite in2="hardAlpha" operator="out"/>
<feColorMatrix type="matrix" values="0 0 0 0 0.807843 0 0 0 0 0.792157 0 0 0 0 0.513726 0 0 0 1 0"/>
<feBlend mode="normal" in2="BackgroundImageFix" result="effect1_dropShadow_42_23"/>
<feBlend mode="normal" in="SourceGraphic" in2="effect1_dropShadow_42_23" result="shape"/>
</filter>
<linearGradient id="paint0_linear_42_23" x1="134.506" y1="16" x2="134.506" y2="255.006" gradientUnits="userSpaceOnUse">
<stop stop-color="#9C8C38"/>
<stop offset="1" stop-color="#FCF8AB"/>
</linearGradient>
</defs>
</svg>
