<svg width="37" height="37" viewBox="0 0 37 37" fill="none" xmlns="http://www.w3.org/2000/svg">
<g clip-path="url(#clip0_1_133)">
<path fill-rule="evenodd" clip-rule="evenodd" d="M18.5 0C28.7172 0 37 8.28277 37 18.5C26.7828 18.5 18.5 10.2172 18.5 0ZM37 18.5C37 28.7172 28.7172 37 18.5 37C18.5 26.7828 26.7828 18.5 37 18.5ZM18.5 37C8.28277 37 0 28.7172 0 18.5C10.2172 18.5 18.5 26.7828 18.5 37ZM0 18.5C0 8.28277 8.28277 0 18.5 0C18.5 10.2172 10.2172 18.5 0 18.5Z" fill="url(#paint0_linear_1_133)"/>
</g>
<defs>
<linearGradient id="paint0_linear_1_133" x1="18.5" y1="0" x2="18.5" y2="37" gradientUnits="userSpaceOnUse">
<stop stop-color="#CECA83"/>
<stop offset="1" stop-color="#9C8C38"/>
</linearGradient>
<clipPath id="clip0_1_133">
<rect width="37" height="37" fill="white"/>
</clipPath>
</defs>
</svg>
