<svg width="265" height="265" viewBox="0 0 265 265" fill="none" xmlns="http://www.w3.org/2000/svg">
<g filter="url(#filter0_d_1_463)">
<path fill-rule="evenodd" clip-rule="evenodd" d="M134.5 16C200.498 16 254 69.5022 254 135.5C188.002 135.5 134.5 81.9978 134.5 16ZM254 135.5C254 201.498 200.498 255 134.5 255C134.5 189.002 188.002 135.5 254 135.5ZM134.5 255C68.5022 255 15 201.498 15 135.5C80.9978 135.5 134.5 189.002 134.5 255ZM15 135.5C15 69.5022 68.5022 16 134.5 16C134.5 81.9978 80.9978 135.5 15 135.5Z" fill="url(#paint0_linear_1_463)"/>
</g>
<defs>
<filter id="filter0_d_1_463" x="0.5" y="0.5" width="264" height="264" filterUnits="userSpaceOnUse" color-interpolation-filters="sRGB">
<feFlood flood-opacity="0" result="BackgroundImageFix"/>
<feColorMatrix in="SourceAlpha" type="matrix" values="0 0 0 0 0 0 0 0 0 0 0 0 0 0 0 0 0 0 127 0" result="hardAlpha"/>
<feOffset dx="-2" dy="-3"/>
<feGaussianBlur stdDeviation="6.25"/>
<feComposite in2="hardAlpha" operator="out"/>
<feColorMatrix type="matrix" values="0 0 0 0 0.611765 0 0 0 0 0.54902 0 0 0 0 0.219608 0 0 0 1 0"/>
<feBlend mode="normal" in2="BackgroundImageFix" result="effect1_dropShadow_1_463"/>
<feBlend mode="normal" in="SourceGraphic" in2="effect1_dropShadow_1_463" result="shape"/>
</filter>
<linearGradient id="paint0_linear_1_463" x1="134.5" y1="16" x2="134.5" y2="255" gradientUnits="userSpaceOnUse">
<stop stop-color="#CECA83"/>
<stop offset="1" stop-color="#9C8C38"/>
</linearGradient>
</defs>
</svg>
